<?xml version="1.0" encoding="utf-8"?>
<!-- Generator: Adobe Illustrator 24.0.2, SVG Export Plug-In . SVG Version: 6.00 Build 0)  -->
<svg version="1.1" id="Layer_1" xmlns="http://www.w3.org/2000/svg" xmlns:xlink="http://www.w3.org/1999/xlink" x="0px" y="0px"
	 viewBox="0 0 2048 2048" style="enable-background:new 0 0 2048 2048;" xml:space="preserve">
<style type="text/css">
	.st0{fill:#04BA86;}
	.st1{fill:none;stroke:#FFFFFF;stroke-width:40;stroke-linecap:round;stroke-linejoin:round;stroke-miterlimit:10;}
	.st2{fill-rule:evenodd;clip-rule:evenodd;fill:#FFFFFF;}
</style>
<g>
	<g>
		<path class="st0" d="M1842.25,340.41C1487.38,307.52,1167.51,137.22,1055,58c-37.52-26.42-24.47-24.42-62,2
			c-112.51,79.22-432.36,236.53-787.25,269.41c-55.87,5.18-68.75,7.73-68.75,63.84v429.99c0,777.76,692.48,1110,867.01,1181.77
			c26.3,10.82,23.7,7.82,50-3c174.52-71.77,857.01-401.01,857.01-1178.77V403.24C1911.01,347.14,1898.12,345.58,1842.25,340.41z"/>
	</g>
	<g>
		<polygon class="st1" points="768.03,632.96 512.06,600.85 768.03,568.75 1279.97,568.75 1535.94,600.85 1279.97,632.96 		"/>
		<g>
			<polyline class="st1" points="1780.69,799.49 1402.35,846.94 645.65,846.94 267.31,799.49 			"/>
			<polyline class="st1" points="1535.94,600.85 1780.69,799.49 1024,1614 267.31,799.49 512.06,600.85 			"/>
			<polyline class="st1" points="1279.97,632.96 1402.35,846.94 1024,1614 645.65,846.94 768.03,632.96 			"/>
		</g>
		<path class="st1" d="M320.41,600.85"/>
	</g>
	<path class="st2" d="M1497.33,741.51l24.05-74.29c4.89-15.11,16.81-26.87,31.98-31.5l74.65-22.96
		c10.33-3.16,10.42-17.73,0.17-21.06l-74.32-24.05c-15.08-4.89-26.84-16.81-31.5-31.98l-22.93-74.65
		c-3.16-10.3-17.73-10.42-21.06-0.14l-24.05,74.29c-4.89,15.08-16.81,26.84-31.98,31.5l-74.65,22.93
		c-10.33,3.18-10.45,17.73-0.17,21.06l74.32,24.05c15.08,4.89,26.84,16.84,31.5,32.01l22.93,74.62
		C1479.43,751.68,1494.01,751.79,1497.33,741.51z"/>
</g>
</svg>
