<?xml version="1.0" encoding="utf-8"?>
<!-- Generator: Adobe Illustrator 24.0.2, SVG Export Plug-In . SVG Version: 6.00 Build 0)  -->
<svg version="1.1" id="Layer_1" xmlns="http://www.w3.org/2000/svg" xmlns:xlink="http://www.w3.org/1999/xlink" x="0px" y="0px"
	 viewBox="0 0 2048 2048" style="enable-background:new 0 0 2048 2048;" xml:space="preserve">
<style type="text/css">
	.st0{fill:url(#SVGID_1_);}
	.st1{fill:none;stroke:#FFFFFF;stroke-width:40;stroke-linecap:round;stroke-linejoin:round;stroke-miterlimit:10;}
</style>
<g>
	<g>
		<linearGradient id="SVGID_1_" gradientUnits="userSpaceOnUse" x1="463.8629" y1="1723.2422" x2="1415.2358" y2="75.4161">
			<stop  offset="0" style="stop-color:#12E49C"/>
			<stop  offset="1" style="stop-color:#00B4AD"/>
		</linearGradient>
		<path class="st0" d="M1812.73,323.58c-342.07-33.62-650.4-207.74-758.85-288.74c-36.17-27.02-23.59-24.97-59.76,2.04
			c-108.45,81-416.76,241.83-758.85,275.45c-53.85,5.29-66.27,7.91-66.27,65.27v439.63c0,795.2,667.49,1134.89,835.72,1208.27
			c25.35,11.06,22.84,7.99,48.2-3.07c168.23-73.37,826.09-410,826.09-1205.2V387.83C1879,330.47,1866.58,328.88,1812.73,323.58z"/>
	</g>
	<g>
		<polygon class="st1" points="768.03,472.08 512.06,439.98 768.03,407.87 1279.97,407.87 1535.94,439.98 1279.97,472.08 		"/>
		<g>
			<polyline class="st1" points="1780.69,702.72 1402.35,765.49 645.65,765.49 267.31,702.72 			"/>
			<polyline class="st1" points="1535.94,439.98 1780.69,702.72 1024,1780.13 267.31,702.72 512.06,439.98 			"/>
			<polyline class="st1" points="1279.97,482.45 1402.35,765.49 1024,1780.13 645.65,765.49 768.03,482.45 			"/>
		</g>
		<path class="st1" d="M320.41,439.98"/>
	</g>
</g>
</svg>
